<svg xmlns="http://www.w3.org/2000/svg" width="276" height="211.001" viewBox="0 0 276 211.001">
  <g id="locationicon" transform="translate(-50 -122.999)">
    <rect id="Rectangle_7" data-name="Rectangle 7" width="102" height="18" rx="9" transform="translate(50 289)" fill="#fff8f8"/>
    <rect id="Rectangle_11" data-name="Rectangle 11" width="102" height="18" rx="9" transform="translate(224 289)" fill="#fff8f8"/>
    <rect id="Rectangle_8" data-name="Rectangle 8" width="102" height="18" rx="9" transform="translate(61 259)" fill="#fff8f8"/>
    <rect id="Rectangle_12" data-name="Rectangle 12" width="102" height="18" rx="9" transform="translate(213 259)" fill="#fff8f8"/>
    <rect id="Rectangle_9" data-name="Rectangle 9" width="102" height="18" rx="9" transform="translate(78 316)" fill="#fff8f8"/>
    <rect id="Rectangle_10" data-name="Rectangle 10" width="102" height="18" rx="9" transform="translate(196 316)" fill="#fff8f8"/>
    <g id="destination" transform="translate(107.768 122.999)">
      <path id="Path_48" data-name="Path 48" d="M64.756,430.773c-13.444,0-27.732,4.448-27.732,12.691s14.288,12.692,27.732,12.692,27.732-4.448,27.732-12.692S78.2,430.773,64.756,430.773Z" transform="translate(-25.294 -296.155)" fill="#ffdb56"/>
      <path id="Path_49" data-name="Path 49" d="M39.462,153.9a39.275,39.275,0,0,0-39.23,39.23c0,13.43,6.389,27.871,18.989,42.919a135.251,135.251,0,0,0,18.8,18.5,2.347,2.347,0,0,0,2.872,0,135.251,135.251,0,0,0,18.8-18.5C72.3,221,78.692,206.562,78.692,193.132A39.275,39.275,0,0,0,39.462,153.9Zm14.711,39.23a14.711,14.711,0,1,1-14.711-14.711A14.711,14.711,0,0,1,54.173,193.132Z" transform="translate(0 -105.807)" fill="#ff4a4a"/>
      <path id="Path_50" data-name="Path 50" d="M380.14,215.3a44.323,44.323,0,0,0-29.363,0c-4.627,1.886-7.176,4.654-7.176,7.8s2.548,5.91,7.176,7.8a44.323,44.323,0,0,0,29.363,0c4.627-1.885,7.175-4.654,7.175-7.8S384.767,217.184,380.14,215.3Z" transform="translate(-236.065 -146.297)" fill="#ffdb56"/>
      <g id="Group_80" data-name="Group 80" transform="translate(11.73 73.866)">
        <path id="Path_51" data-name="Path 51" d="M64.756,471.771c-11.752,0-24.149-3.4-27.083-9.762a6.929,6.929,0,0,0-.649,2.93c0,8.243,14.288,12.692,27.732,12.692s27.732-4.448,27.732-12.692a6.931,6.931,0,0,0-.649-2.93C88.9,468.371,76.508,471.771,64.756,471.771Z" transform="translate(-37.024 -391.496)" fill="#ffbb24"/>
        <path id="Path_52" data-name="Path 52" d="M380.141,241.235a44.324,44.324,0,0,1-29.363,0c-3.121-1.272-5.292-2.946-6.377-4.865a5.892,5.892,0,0,0-.8,2.93c0,3.141,2.548,5.91,7.176,7.8a44.324,44.324,0,0,0,29.363,0c4.627-1.885,7.175-4.654,7.175-7.8a5.893,5.893,0,0,0-.8-2.93C385.432,238.288,383.261,239.963,380.141,241.235Z" transform="translate(-247.796 -236.37)" fill="#ffbb24"/>
      </g>
      <path id="Path_53" data-name="Path 53" d="M346.02,0a30.729,30.729,0,0,0-30.694,30.694c0,10.453,4.953,21.669,14.721,33.336a104.569,104.569,0,0,0,14.537,14.3,2.347,2.347,0,0,0,2.872,0,104.551,104.551,0,0,0,14.537-14.3c9.768-11.667,14.721-22.882,14.721-33.336A30.73,30.73,0,0,0,346.02,0Zm11.307,30.694A11.307,11.307,0,1,1,346.02,19.388,11.307,11.307,0,0,1,357.327,30.694Z" transform="translate(-216.626 0)" fill="#ff4a4a"/>
      <g id="Group_81" data-name="Group 81" transform="translate(35.043 0)">
        <path id="Path_54" data-name="Path 54" d="M116.045,153.9a39.452,39.452,0,0,0-4.419.25,39.285,39.285,0,0,1,34.811,38.98c0,13.43-6.389,27.871-18.989,42.919a141.374,141.374,0,0,1-15.822,16.033c1.752,1.506,2.855,2.366,2.983,2.465a2.347,2.347,0,0,0,2.872,0,135.249,135.249,0,0,0,18.8-18.5c12.6-15.049,18.989-29.489,18.989-42.919A39.274,39.274,0,0,0,116.045,153.9Z" transform="translate(-111.626 -105.807)" fill="#e7343f"/>
        <path id="Path_55" data-name="Path 55" d="M403.824,0A30.769,30.769,0,0,0,399.4.319,30.741,30.741,0,0,1,425.68,30.694c0,10.453-4.953,21.669-14.721,33.336a109.432,109.432,0,0,1-11.554,11.8c1.745,1.529,2.868,2.4,2.983,2.493a2.347,2.347,0,0,0,2.872,0,104.549,104.549,0,0,0,14.537-14.3c9.768-11.667,14.721-22.882,14.721-33.336A30.729,30.729,0,0,0,403.824,0Z" transform="translate(-309.473 0)" fill="#e7343f"/>
      </g>
      <path id="Path_56" data-name="Path 56" d="M237.065,313.561a2.346,2.346,0,0,1-.01-4.693l3.1-.014h.011a2.346,2.346,0,0,1,.01,4.693l-3.1.014Zm12.4-.056a2.346,2.346,0,0,1-.01-4.693l3.1-.014h.011a2.346,2.346,0,0,1,.01,4.693l-3.1.014Zm12.4-.057a2.346,2.346,0,0,1-.01-4.693l3.1-.014h.011a2.346,2.346,0,0,1,.01,4.693l-3.1.014Zm12.4-.056a2.346,2.346,0,0,1-.01-4.693l3.1-.014h.011a2.346,2.346,0,0,1,.01,4.693l-3.1.014Zm12.4-.056a2.346,2.346,0,0,1-.01-4.693l3.1-.014h.011a2.346,2.346,0,0,1,.01,4.693l-3.1.014Zm12.4-.056a2.346,2.346,0,0,1-.011-4.693l.439,0a17.709,17.709,0,0,0,2.34-.165,2.346,2.346,0,0,1,.642,4.648,22.454,22.454,0,0,1-2.961.209l-.438,0Zm11.672-3.535a2.347,2.347,0,0,1-1.339-4.275,17.664,17.664,0,0,0,2.118-1.726,2.346,2.346,0,1,1,3.237,3.4,22.383,22.383,0,0,1-2.681,2.185A2.336,2.336,0,0,1,310.715,309.745Zm7.42-9.675a2.348,2.348,0,0,1-2.21-3.135,17.483,17.483,0,0,0,.713-2.634,2.346,2.346,0,0,1,4.611.868,22.206,22.206,0,0,1-.9,3.341A2.346,2.346,0,0,1,318.135,300.07Zm.38-12.188a2.347,2.347,0,0,1-2.254-1.7,17.438,17.438,0,0,0-.957-2.555,2.346,2.346,0,1,1,4.253-1.984,22.137,22.137,0,0,1,1.214,3.245,2.349,2.349,0,0,1-2.257,2.994Zm-6.8-10.122a2.336,2.336,0,0,1-1.453-.5,17.633,17.633,0,0,0-2.268-1.521,2.346,2.346,0,1,1,2.3-4.088,22.393,22.393,0,0,1,2.872,1.926,2.347,2.347,0,0,1-1.455,4.188Zm-11.421-4.253c-.035,0-.07,0-.106,0q-.393-.017-.791-.017h-2.2a2.346,2.346,0,1,1,0-4.693h2.2c.331,0,.667.007,1,.022a2.346,2.346,0,0,1-.1,4.69Zm-12.4-.02h-3.1a2.346,2.346,0,1,1,0-4.693h3.1a2.346,2.346,0,1,1,0,4.693Zm-12.4,0h-3.1a2.346,2.346,0,1,1,0-4.693h3.1a2.346,2.346,0,0,1,0,4.693Zm-12.4,0H260a2.346,2.346,0,1,1,0-4.693h3.1a2.346,2.346,0,1,1,0,4.693Zm-11.953-2.334a2.335,2.335,0,0,1-1.249-.362,17.657,17.657,0,0,1-2.81-2.2,2.346,2.346,0,1,1,3.253-3.382,12.918,12.918,0,0,0,2.06,1.613,2.346,2.346,0,0,1-1.254,4.331Zm-6.819-9.939a2.347,2.347,0,0,1-2.3-1.9,17.669,17.669,0,0,1-.324-3.371v-.185a2.347,2.347,0,0,1,2.346-2.319h.028a2.346,2.346,0,0,1,2.319,2.373v.13a12.964,12.964,0,0,0,.238,2.473,2.348,2.348,0,0,1-2.305,2.8Zm2.564-11.775a2.346,2.346,0,0,1-1.9-3.715,17.638,17.638,0,0,1,2.365-2.673,2.346,2.346,0,0,1,3.182,3.449,12.954,12.954,0,0,0-1.735,1.961A2.344,2.344,0,0,1,246.892,249.44Zm10.329-6.209a2.347,2.347,0,0,1-.307-4.673,17.753,17.753,0,0,1,2.331-.154h1.071a2.346,2.346,0,0,1,0,4.693h-1.071a13.048,13.048,0,0,0-1.712.112A2.251,2.251,0,0,1,257.221,243.231Z" transform="translate(-161.209 -163.903)" fill="#1ea4e9"/>
    </g>
  </g>
</svg>
