<svg height="512pt" viewBox="-111 0 512 512.00004" width="512pt" xmlns="http://www.w3.org/2000/svg"><path d="m48.265625 66.582031c-12.917969 1.484375-22.671875 12.421875-22.664063 25.425781v27.457032c-14.132812.015625-25.585937 11.46875-25.601562 25.601562v17.066406c.015625 14.132813 11.46875 25.585938 25.601562 25.601563h.851563l31.722656 301.339844c1.347657 13.042969 12.347657 22.949219 25.457031 22.925781h122.867188c13.109375.019531 24.109375-9.882812 25.457031-22.925781l31.722657-301.339844h.855468c14.128906-.015625 25.582032-11.46875 25.597656-25.601563v-17.066406c-.015624-14.132812-11.46875-25.585937-25.597656-25.601562v-49.113282c.027344-6.789062-2.667968-13.300781-7.476562-18.085937-4.8125-4.785156-11.339844-7.445313-18.125-7.378906v-27.820313c4.710937 0 8.53125-3.820312 8.53125-8.53125 0-4.714844-3.820313-8.535156-8.53125-8.535156h-68.265625c-4.714844 0-8.535157 3.820312-8.535157 8.535156 0 4.710938 3.820313 8.53125 8.535157 8.53125v35.390625zm166.726563 420.710938c-.453126 4.347656-4.121094 7.648437-8.492188 7.640625h-122.867188c-4.371093.007812-8.039062-3.292969-8.492187-7.640625l-31.535156-299.558594h202.921875zm58.074218-342.226563v17.066406c-.003906 4.710938-3.820312 8.53125-8.53125 8.535157h-238.933594c-4.714843-.003907-8.53125-3.824219-8.535156-8.535157v-17.066406c.003906-4.710937 3.820313-8.53125 8.535156-8.53125h238.933594c4.710938 0 8.527344 3.820313 8.53125 8.53125zm-28.457031-81.089844c1.828125 1.613282 2.867187 3.933594 2.855469 6.375v49.113282h-204.796875v-27.457032c0-4.332031 3.246093-7.976562 7.550781-8.472656l187.730469-21.667968c2.417969-.273438 4.839843.492187 6.660156 2.109374zm-56.875-46.910156h34.132813v29.480469l-34.132813 3.941406zm0 0"/><path d="m128 469.332031h17.066406c4.714844 0 8.535156-3.820312 8.535156-8.53125 0-4.714843-3.820312-8.535156-8.535156-8.535156h-8.53125v-17.066406h25.597656c4.714844 0 8.535157-3.820313 8.535157-8.53125 0-4.714844-3.820313-8.535157-8.535157-8.535157h-25.597656v-17.066406h8.53125c4.714844 0 8.535156-3.820312 8.535156-8.53125 0-4.714844-3.820312-8.535156-8.535156-8.535156h-8.53125v-17.066406h25.597656c4.714844 0 8.535157-3.820313 8.535157-8.535156 0-4.710938-3.820313-8.53125-8.535157-8.53125h-25.597656v-17.066407h8.53125c4.714844 0 8.535156-3.820312 8.535156-8.535156 0-4.710937-3.820312-8.53125-8.535156-8.53125h-8.53125v-17.066406h25.597656c4.714844 0 8.535157-3.820313 8.535157-8.535157 0-4.710937-3.820313-8.53125-8.535157-8.53125h-25.597656v-17.066406h8.53125c4.714844 0 8.535156-3.824218 8.535156-8.535156s-3.820312-8.535156-8.535156-8.535156h-8.53125v-17.066406h25.597656c4.714844 0 8.535157-3.820313 8.535157-8.53125 0-4.714844-3.820313-8.535157-8.535157-8.535157h-34.132812c-4.710938 0-8.535156 3.820313-8.535156 8.535157v238.933593c0 4.710938 3.824218 8.53125 8.535156 8.53125zm0 0"/></svg>