<svg height="512" viewBox="0 0 64 64" width="512" xmlns="http://www.w3.org/2000/svg"><g id="cup_cake" data-name="cup cake"><path d="m56.56 22.43a24.977 24.977 0 0 0 -49.12 0 7.987 7.987 0 0 0 -.06 15.12l3.63 23.6a1.008 1.008 0 0 0 .99.85h40a1.008 1.008 0 0 0 .99-.85l3.63-23.6a7.987 7.987 0 0 0 -.06-15.12zm-24.56-18.43a22.859 22.859 0 0 1 22.44 18.02c-.15-.01-.29-.02-.44-.02h-44c-.15 0-.29.01-.44.02a22.859 22.859 0 0 1 22.44-18.02zm-19.14 56-3.39-22.03c.17.01.35.03.53.03h11.19l1.41 22zm26.53 0h-14.78l-1.41-22h17.6zm11.75 0h-9.74l1.41-22h11.19c.18 0 .36-.02.53-.03zm2.86-24h-44a6 6 0 0 1 0-12h44a6 6 0 0 1 0 12z"/><path d="m25 7h4v2h-4z"/><path d="m18 14h2v2h-2z"/><path d="m23 17h2v2h-2z"/><path d="m35 12h4v2h-4z"/><path d="m33 19h2v2h-2z"/><path d="m46 18h2v2h-2z"/><path d="m41 8h2v2h-2z"/></g></svg>