<svg height="512pt" viewBox="0 0 512 512" width="512pt" xmlns="http://www.w3.org/2000/svg"><path d="m415.230469 318.460938c-2.207031 0-4.394531.082031-6.566407.226562l-25.601562-112.171875-7.183594-31.476563h11.167969c14.671875 0 26.605469 11.933594 26.605469 26.605469v18.71875c0 8.285157 6.714844 15 15 15s15-6.714843 15-15v-18.71875c0-31.214843-25.394532-56.605469-56.605469-56.605469h-29.976563c-.039062 0-.066406.007813-.101562.011719-1.792969.011719-3.609375.332031-5.378906 1.023438l-68.855469 27.023437v-80.851562c25.433594 0 46.121094-20.691406 46.121094-46.125 0-25.429688-20.6875-46.121094-46.121094-46.121094s-46.125 20.691406-46.125 46.121094c0 12.136718 4.71875 23.179687 12.40625 31.425781l-13.207031 27.171875-109.078125-53.199219c-7.445313-3.628906-16.425781-.539062-20.054688 6.90625l-59.683593 122.371094c-3.632813 7.445313-.542969 16.425781 6.90625 20.054687l109.277343 53.300782-34.804687 69.613281c-9.910156-3.429687-20.542969-5.304687-31.605469-5.304687-53.355469 0-96.765625 43.410156-96.765625 96.769531 0 53.355469 43.410156 96.765625 96.769531 96.765625 48.253907 0 88.371094-35.507813 95.601563-81.765625h127.257812c7.230469 46.257812 47.347656 81.765625 95.601563 81.765625 53.359375 0 96.769531-43.410156 96.769531-96.765625 0-53.359375-43.410156-96.769531-96.769531-96.769531zm-68.90625-138.09375 14.789062 64.804687h-160.207031l51.828125-106.648437v56.570312c0 4.960938 2.453125 9.601562 6.550781 12.394531s9.3125 3.382813 13.929688 1.570313zm-91.859375 201.320312-53.257813-106.515625h106.515625zm28.269531-351.6875c8.890625 0 16.121094 7.230469 16.121094 16.121094s-7.230469 16.125-16.121094 16.125c-2.632813 0-5.113281-.648438-7.3125-1.773438-.296875-.175781-.597656-.347656-.90625-.503906-4.722656-2.816406-7.90625-7.960938-7.90625-13.847656 0-8.890625 7.234375-16.121094 16.125-16.121094zm-155.671875 55.058594 95.40625 46.53125-46.53125 95.40625-95.40625-46.53125zm-30.292969 396.9375c-36.816406 0-66.769531-29.949219-66.769531-66.765625 0-36.816407 29.953125-66.769531 66.769531-66.769531 6.238281 0 12.277344.878906 18.007813 2.488281l-28.785156 57.570312c-2.324219 4.652344-2.078126 10.171875.65625 14.59375 2.734374 4.421875 7.5625 7.113281 12.757812 7.113281h62.410156c-6.828125 29.617188-33.390625 51.769532-65.046875 51.769532zm65.046875-81.765625h-38.136718l17.429687-34.863281c10.164063 9.054687 17.546875 21.15625 20.707031 34.863281zm30.554688 0c-3.96875-25.382813-17.835938-47.53125-37.519532-62.347657l22.085938-44.167968 53.257812 106.515625zm148.894531-125.058594h26.695313l11.449218 50.164063c-31.203125 12.480468-54.445312 40.757812-59.78125 74.894531h-40.894531zm73.964844 206.824219c-36.8125 0-66.765625-29.953125-66.765625-66.769532 0-26.417968 15.425781-49.300781 37.742187-60.117187l14.402344 63.09375c1.585937 6.953125 7.765625 11.664063 14.609375 11.664063 1.105469 0 2.226562-.121094 3.351562-.378907 8.074219-1.84375 13.128907-9.882812 11.285157-17.960937l-14.390625-63.0625c36.707031.128906 66.535156 30.023437 66.535156 66.765625 0 36.816406-29.953125 66.765625-66.769531 66.765625zm0 0"/><path d="m15.007812 50.679688h54.933594c8.285156 0 15-6.71875 15-15 0-8.285157-6.714844-15-15-15h-54.933594c-8.285156 0-14.9999995 6.714843-14.9999995 15 0 8.28125 6.7148435 15 14.9999995 15zm0 0"/><path d="m15.007812 110.167969h31.335938c8.285156 0 15-6.714844 15-15 0-8.28125-6.714844-15-15-15h-31.335938c-8.285156 0-14.9999995 6.71875-14.9999995 15 0 8.285156 6.7148435 15 14.9999995 15zm0 0"/></svg>