<?xml version="1.0" encoding="iso-8859-1"?>
<!-- Generator: Adobe Illustrator 16.0.0, SVG Export Plug-In . SVG Version: 6.00 Build 0)  -->
<!DOCTYPE svg PUBLIC "-//W3C//DTD SVG 1.1//EN" "http://www.w3.org/Graphics/SVG/1.1/DTD/svg11.dtd">
<svg version="1.1" id="Capa_1" xmlns="http://www.w3.org/2000/svg" xmlns:xlink="http://www.w3.org/1999/xlink" x="0px" y="0px"
	 width="400px" height="400px" viewBox="0 0 400 400" style="enable-background:new 0 0 400 400;" xml:space="preserve">
<g>
	<g>
		<g>
			<path d="M278.713,168.432l-76.671-59.643c-1.201-0.935-2.885-0.935-4.087,0l-76.671,59.643c-0.811,0.63-1.285,1.602-1.285,2.629
				v90.671c0,1.838,1.491,3.329,3.329,3.329H276.67c1.838,0,3.329-1.491,3.329-3.329v-90.671
				C279.999,170.033,279.524,169.062,278.713,168.432z M199.999,212.33l-63.108-37.939h126.216L199.999,212.33z"/>
			<path d="M347.67,305.49c-5.518,0-10.81,0.955-15.729,2.69l-20.568-20.565c19.024-24.135,30.391-54.57,30.391-87.615
				s-11.364-63.48-30.391-87.615l20.568-20.567c4.921,1.737,10.213,2.692,15.729,2.692c26.099,0,47.253-21.156,47.253-47.256
				C394.923,21.156,373.769,0,347.67,0c-26.097,0-47.256,21.156-47.256,47.254c0,5.518,0.955,10.809,2.692,15.73l-21.299,21.299
				c-23.131-16.397-51.361-26.047-81.81-26.047c-30.447,0-58.679,9.649-81.809,26.047L96.892,62.984
				c1.737-4.922,2.692-10.213,2.692-15.73C99.583,21.156,78.425,0,52.328,0S5.076,21.156,5.076,47.254
				c0,26.1,21.156,47.256,47.253,47.256c5.518,0,10.81-0.955,15.731-2.692l20.568,20.567C69.604,136.52,58.237,166.955,58.237,200
				s11.366,63.48,30.391,87.615L68.06,308.181c-4.921-1.735-10.213-2.69-15.731-2.69c-26.098,0-47.253,21.156-47.253,47.257
				C5.076,378.844,26.232,400,52.329,400c26.097,0,47.256-21.156,47.256-47.253c0-5.521-0.955-10.812-2.692-15.731l21.298-21.299
				c23.13,16.396,51.362,26.047,81.809,26.047c30.447,0,58.68-9.647,81.81-26.047l21.299,21.299
				c-1.737,4.922-2.692,10.213-2.692,15.731c0,26.097,21.159,47.253,47.256,47.253c26.099,0,47.253-21.156,47.253-47.253
				C394.923,326.646,373.768,305.49,347.67,305.49z M199.999,315c-63.512,0-115-51.486-115-115c0-63.514,51.488-115,115-115
				s115,51.486,115,115C314.999,263.514,263.51,315,199.999,315z"/>
		</g>
	</g>
</g>
<g>
</g>
<g>
</g>
<g>
</g>
<g>
</g>
<g>
</g>
<g>
</g>
<g>
</g>
<g>
</g>
<g>
</g>
<g>
</g>
<g>
</g>
<g>
</g>
<g>
</g>
<g>
</g>
<g>
</g>
</svg>
