<svg xmlns="http://www.w3.org/2000/svg" width="30" height="30" viewBox="0 0 30 30">
  <g id="googleicon" transform="translate(-286 -679)">
    <circle id="Ellipse_5" data-name="Ellipse 5" cx="15" cy="15" r="15" transform="translate(286 679)" fill="#f44336"/>
    <g id="google-glass-logo" transform="translate(288.625 687)">
      <g id="glass" transform="translate(6.375)">
        <path id="Path_19" data-name="Path 19" d="M13.689,5.984V7.646h3.923a4.644,4.644,0,0,1-4.588,3.989A5.023,5.023,0,0,1,8.037,6.649a5.023,5.023,0,0,1,4.987-4.987,4.665,4.665,0,0,1,3.457,1.529l1.2-1.2A6.528,6.528,0,0,0,13.024,0a6.649,6.649,0,0,0,0,13.3A6.392,6.392,0,0,0,19.34,6.649V5.984Z" transform="translate(-6.375 0)" fill="#fff"/>
      </g>
    </g>
  </g>
</svg>
