<svg id="Capa_1" enable-background="new 0 0 511.971 511.971" height="512" viewBox="0 0 511.971 511.971" width="512" xmlns="http://www.w3.org/2000/svg"><g><path d="m482.453 212.329c-3.86-1.507-8.208.397-9.716 4.255-36.403 93.145-79.837 184.568-129.094 271.729-4 7.071-12.55 10.352-20.325 7.804-76.079-24.937-150.172-56.848-220.22-94.846-3.643-1.974-8.194-.625-10.168 3.017-1.975 3.641-.625 8.194 3.016 10.168 70.839 38.427 145.767 70.697 222.702 95.915 3.301 1.082 6.676 1.6 10.011 1.6 11.36 0 22.242-6.017 28.043-16.277 49.605-87.777 93.347-179.847 130.007-273.65 1.506-3.858-.399-8.208-4.256-9.715z"/><path d="m493.704 128.431c-9.875-5.954-19.841-11.77-29.875-17.474l-3.353-35.63c-.658-6.964-3.987-13.255-9.375-17.715s-12.183-6.553-19.153-5.897l-70.514 6.634c-17.696-8.159-35.54-15.911-53.492-23.256-.114-2.728-1.712-5.296-4.364-6.511l-56.723-25.999c-1.809-.829-3.872-.905-5.736-.213-1.865.693-3.378 2.098-4.207 3.906l-.806 1.758c-6.343-2.183-12.755-4.339-19.14-6.436-12.611-4.13-26.307-.041-34.629 9.785l-9.89-4.533c-12.158-5.571-26.583-.215-32.155 11.944-5.572 12.158-.215 26.583 11.943 32.155l6.022 2.76c-2.611 4.843-5.211 9.711-7.783 14.57l-5.108-2.341c-12.158-5.571-26.583-.215-32.155 11.944-5.572 12.158-.215 26.583 11.943 32.155l3.094 1.418c-2.459 4.907-4.906 9.845-7.326 14.779l-2.637-1.209c-5.889-2.699-12.477-2.944-18.551-.688-6.073 2.256-10.905 6.742-13.604 12.632-5.572 12.158-.215 26.583 11.943 32.155l1.961.899c-2.308 4.984-4.603 9.991-6.87 14.989l-1.961-.899c-12.16-5.573-26.584-.214-32.155 11.943-5.572 12.158-.215 26.583 11.943 32.155l2.651 1.215c-2.162 5.064-4.298 10.126-6.413 15.198l-3.108-1.425c-5.889-2.7-12.477-2.943-18.551-.688-6.073 2.256-10.905 6.742-13.604 12.631-5.572 12.158-.215 26.583 11.943 32.155l5.108 2.341c-2.002 5.122-3.993 10.269-5.956 15.407l-6.022-2.76c-12.159-5.573-26.583-.214-32.155 11.943-5.572 12.158-.215 26.583 11.943 32.155l9.887 4.531c-2.016 12.705 3.829 25.764 15.203 32.62 9.16 5.526 18.498 11.007 27.756 16.292 1.173.669 2.451.988 3.711.988 2.604 0 5.137-1.359 6.521-3.783 2.053-3.597.802-8.178-2.795-10.232-9.154-5.225-18.387-10.645-27.447-16.11-4.783-2.883-7.737-7.808-8.252-13.102 2.815 1.074 5.723 1.592 8.595 1.592 9.196 0 18.01-5.255 22.086-14.148 2.7-5.89 2.944-12.478.688-18.551-2.256-6.074-6.742-10.905-12.631-13.604l-3.422-1.568c1.96-5.137 3.946-10.287 5.947-15.411l4.344 1.991c3.222 1.477 6.652 2.219 10.093 2.219 2.85 0 5.707-.509 8.458-1.531 6.074-2.256 10.905-6.742 13.604-12.631 2.7-5.89 2.944-12.478.688-18.551-2.255-6.073-6.741-10.905-12.631-13.604l-6.357-2.914c2.113-5.072 4.247-10.135 6.409-15.2l6.817 3.125c3.265 1.497 6.693 2.205 10.07 2.205 9.197 0 18.01-5.255 22.085-14.147 5.572-12.158.215-26.583-11.943-32.155l-7.513-3.443c2.267-4.997 4.562-10.005 6.87-14.989l7.512 3.443c3.222 1.477 6.652 2.219 10.094 2.219 2.849 0 5.707-.509 8.458-1.531 6.073-2.256 10.905-6.742 13.604-12.631 5.572-12.158.214-26.583-11.943-32.155l-6.832-3.131c2.421-4.934 4.871-9.871 7.331-14.777l6.37 2.92c3.265 1.496 6.693 2.205 10.07 2.204 9.197 0 18.01-5.255 22.085-14.148 5.572-12.158.215-26.583-11.943-32.155l-4.344-1.991c2.575-4.86 5.179-9.726 7.792-14.566l3.422 1.568c3.222 1.477 6.652 2.219 10.094 2.219 2.85 0 5.707-.509 8.458-1.531 6.073-2.256 10.905-6.742 13.604-12.632 5.351-11.676.618-25.438-10.534-31.447 4.334-3.055 10.008-4.04 15.327-2.299 5.846 1.919 11.714 3.892 17.533 5.887l-25.736 56.149c-1.218 2.656-.781 5.778 1.118 7.999 1.898 2.221 4.914 3.137 7.728 2.347l33.264-9.342 14.638 31.297c1.234 2.638 3.883 4.323 6.794 4.323h.029c2.922-.011 5.571-1.719 6.789-4.375l27.997-61.085c63.071 25.818 124.778 56.816 183.505 92.222 7.003 4.232 10.094 12.853 7.352 20.493-3.151 8.765-6.48 17.824-9.895 26.923-1.455 3.878.51 8.202 4.388 9.657.868.326 1.758.48 2.634.48 3.036 0 5.894-1.857 7.023-4.867 3.438-9.164 6.791-18.288 9.966-27.121 5.148-14.341-.618-30.492-13.716-38.407zm-434.985 203.274c.861 2.317.768 4.831-.262 7.078-2.127 4.639-7.629 6.684-12.27 4.558l-7.374-3.38c-.006-.003-.012-.005-.018-.008l-15.718-7.204c-4.639-2.126-6.684-7.63-4.558-12.27 1.556-3.394 4.918-5.398 8.428-5.398 1.288 0 2.596.27 3.842.841l23.11 10.592c2.248 1.03 3.959 2.873 4.82 5.191zm26.819-52.009c-1.03 2.248-2.874 3.959-5.191 4.82s-4.831.768-7.078-.262l-23.11-10.592c-4.639-2.126-6.684-7.63-4.558-12.27 1.556-3.394 4.918-5.398 8.427-5.398 1.289 0 2.597.27 3.842.841l23.11 10.592c4.64 2.126 6.684 7.63 4.558 12.269zm27.081-59.087c-2.126 4.639-7.628 6.684-12.27 4.557l-23.109-10.592c-4.639-2.126-6.684-7.63-4.558-12.27 2.127-4.639 7.631-6.683 12.27-4.557l23.11 10.592c4.639 2.127 6.683 7.631 4.557 12.27zm27.082-59.088c-2.127 4.64-7.631 6.683-12.27 4.558l-23.109-10.592c-4.639-2.126-6.684-7.63-4.558-12.27 2.127-4.64 7.632-6.683 12.27-4.557l23.109 10.592c4.639 2.126 6.684 7.63 4.558 12.269zm27.081-59.086c-2.126 4.639-7.631 6.684-12.27 4.557l-23.109-10.592c-4.639-2.126-6.683-7.63-4.557-12.27 1.556-3.393 4.917-5.398 8.427-5.398 1.288 0 2.597.27 3.842.841l23.109 10.592c4.64 2.126 6.684 7.63 4.558 12.27zm27.082-59.087c-1.03 2.247-2.874 3.959-5.191 4.82-2.317.86-4.831.768-7.079-.262l-23.11-10.592c-4.639-2.126-6.683-7.63-4.557-12.27 1.556-3.394 4.918-5.398 8.427-5.398 1.288 0 2.597.27 3.842.841l23.109 10.592c4.64 2.125 6.685 7.629 4.559 12.269zm239.491 23.301c2.969-.281 5.879.613 8.182 2.519 2.302 1.906 3.725 4.594 4.006 7.567l2.382 25.308c-19.738-10.873-39.748-21.256-59.978-31.122zm-165.792 22.512-10.471-22.388c-1.259-2.69-3.942-4.323-6.793-4.323-.672 0-1.354.091-2.029.28l-23.795 6.683 22.948-50.068 43.088 19.749z"/><path d="m383.005 175.391c-3.778-1.691-8.217.006-9.906 3.789l-16.216 36.302-9.283-52.626c-.57-3.232-3.176-5.719-6.432-6.136-3.256-.416-6.404 1.331-7.772 4.314l-26.258 57.289c-1.726 3.766-.072 8.217 3.693 9.943 3.764 1.727 8.217.073 9.943-3.693l16.233-35.417 8.848 50.157c.683 3.839 3.475 6.62 7.112 7.083.349.044.695.066 1.039.066 3.317 0 6.338-2.037 7.903-5.456l24.884-55.708c1.691-3.783-.005-8.218-3.788-9.907z"/><path d="m233.334 113.488c.428-4.03-1.919-7.85-5.708-9.288-3.789-1.439-8.079-.138-10.482 3.23l-35.706 51.27c-2.368 3.399-1.531 8.073 1.868 10.44s8.073 1.53 10.44-1.868l21.05-30.225-5.427 37.728c-.013.092-.024.184-.034.276-.407 3.838 1.682 7.485 5.198 9.075 3.517 1.592 7.635.75 10.248-2.09.061-.067.121-.134.18-.203l24.686-28.869-8.835 35.962c-.988 4.022 1.471 8.084 5.494 9.073.602.148 1.203.219 1.795.219 3.372 0 6.437-2.291 7.277-5.712l14.961-60.898c.918-3.946-.942-8.023-4.524-9.915s-7.998-1.131-10.739 1.85c-.061.066-.121.134-.18.203l-27.69 32.381 6.094-42.364c.013-.09.024-.182.034-.275z"/><path d="m321.569 147.866-23.963-10.983c-1.808-.829-3.87-.905-5.736-.213-1.864.693-3.378 2.098-4.207 3.906l-13.033 28.434v.001s0 .001 0 .001l-13.033 28.435c-1.726 3.766-.072 8.217 3.693 9.943l23.963 10.983c1.013.464 2.074.684 3.12.684 2.842 0 5.562-1.625 6.823-4.377 1.726-3.766.072-8.217-3.693-9.943l-17.145-7.858 6.783-14.8 15.378 7.049c1.013.464 2.074.684 3.12.684 2.842 0 5.562-1.625 6.823-4.377 1.726-3.766.072-8.217-3.693-9.943l-15.378-7.049 6.783-14.8 17.145 7.858c3.768 1.728 8.219.072 9.943-3.693 1.726-3.765.073-8.216-3.693-9.942z"/><path d="m406.391 194.358c1.726-3.766.072-8.217-3.693-9.943-3.767-1.728-8.218-.072-9.943 3.693l-18.102 39.495c-3.966 8.652-3.082 17.219 2.7 26.189 3.001 4.658 7.16 8.233 12.362 10.626 4.155 1.912 8.457 2.877 12.807 2.877.359 0 .72-.006 1.08-.02 14.819-.546 21.551-8.559 24.588-15.186l18.083-39.453c1.726-3.766.072-8.217-3.693-9.943-3.767-1.727-8.218-.072-9.943 3.693l-18.083 39.453c-1.307 2.852-3.796 6.162-11.503 6.445-2.387.09-4.69-.402-7.066-1.495-2.603-1.197-4.572-2.873-6.022-5.124-3.438-5.333-3.154-8.58-1.672-11.814z"/><path d="m187.538 286.296c-.001-.002-.002-.004-.002-.006l-15.905-42.822c-1.443-3.883-5.76-5.863-9.642-4.419-3.883 1.442-5.862 5.759-4.419 9.642l23.207 62.479c2.882 7.76 8.614 13.933 16.139 17.382 4.117 1.887 8.5 2.835 12.897 2.835 3.641 0 7.292-.65 10.806-1.956l3.375-1.254 14.216 38.273c-2.468 2.08-4.484 4.677-5.869 7.698-2.468 5.384-2.691 11.407-.629 16.959l18.907 50.903c3.316 8.926 11.803 14.455 20.81 14.454 2.56 0 5.162-.447 7.697-1.389 5.553-2.063 9.97-6.164 12.438-11.548s2.69-11.408.628-16.959l-18.906-50.903c-3.341-8.993-11.935-14.536-21.018-14.45l-14.212-38.262 3.37-1.252c7.76-2.882 13.933-8.614 17.382-16.139s3.762-15.943.879-23.703l-23.206-62.479c-1.443-3.883-5.76-5.863-9.642-4.419-3.883 1.442-5.862 5.759-4.419 9.642l15.904 42.819c.001.003.002.006.003.009 1.487 4.004 1.327 8.347-.453 12.23-.769 1.679-1.815 3.171-3.062 4.46l-20.929-56.346c-1.443-3.883-5.76-5.863-9.642-4.419-3.883 1.442-5.862 5.759-4.419 9.642l21.476 57.818-5.59 2.076-21.475-57.818c-1.442-3.883-5.76-5.863-9.642-4.419-3.883 1.442-5.862 5.759-4.419 9.642l20.929 56.347c-1.786-.162-3.552-.61-5.231-1.379-3.888-1.779-6.845-4.964-8.332-8.969zm71.685 94.594 18.906 50.903c.667 1.796.595 3.745-.203 5.486-.799 1.742-2.228 3.069-4.024 3.736-3.711 1.379-7.845-.52-9.224-4.227l-18.906-50.902c-1.377-3.708.519-7.845 4.227-9.223.82-.305 1.662-.45 2.49-.45 2.915 0 5.661 1.789 6.734 4.677zm-12.622-87.398c-.105 1.988-.576 3.958-1.431 5.822-1.779 3.883-4.965 6.84-8.969 8.328l-20.807 7.729c-4.004 1.487-8.348 1.326-12.23-.454-1.869-.856-3.516-2.045-4.895-3.487 1.407.197 2.824.307 4.242.307 3.641 0 7.292-.65 10.807-1.956l.574-.213c.001 0 .003-.001.004-.001s.002-.001.003-.001l20.226-7.512c4.882-1.815 9.134-4.757 12.476-8.562z"/></g></svg>