<svg id="Capa_1" enable-background="new 0 0 512 512" height="512" viewBox="0 0 512 512" width="512" xmlns="http://www.w3.org/2000/svg"><g><g><path d="m296.835 157.796c0-31.986-26.022-58.008-58.008-58.008s-58.008 26.022-58.008 58.008 26.022 58.008 58.008 58.008 58.008-26.022 58.008-58.008zm-58.008 43.008c-23.714 0-43.008-19.294-43.008-43.008s19.294-43.008 43.008-43.008 43.008 19.294 43.008 43.008-19.294 43.008-43.008 43.008z"/><path d="m306.116 424.808c-3.504-2.211-8.135-1.16-10.344 2.343l-39.772 63.07-26.186-41.526c28.623-3.536 50.859-27.988 50.859-57.552 0-31.986-26.022-58.008-58.008-58.008-20.162 0-38.399 10.327-48.868 26.73l-37.831-59.992c-2.209-3.503-6.839-4.553-10.344-2.343-3.504 2.209-4.553 6.841-2.343 10.344l86.63 137.376c.005.008.01.015.014.023l39.733 63.008c1.374 2.178 3.769 3.5 6.344 3.5s4.97-1.321 6.344-3.5l46.116-73.13c2.209-3.502 1.16-8.134-2.344-10.343zm-83.451-76.673c23.714 0 43.008 19.294 43.008 43.008s-19.294 43.008-43.008 43.008c-.682 0-1.373-.033-2.064-.066l-37.59-59.609c6.649-15.887 22.18-26.341 39.654-26.341z"/><path d="m509.803 104.911c-63.076-63.076-146.838-100.253-235.857-104.683-4.127-.203-7.657 2.981-7.863 7.118s2.981 7.657 7.118 7.863c83.307 4.146 161.806 38.219 221.731 96.116l-23.157 36.722c-58.601-55.293-134.859-85.635-215.775-85.635s-157.174 30.342-215.775 85.636l-23.157-36.722c59.925-57.898 138.424-91.971 221.731-96.116 4.137-.206 7.324-3.727 7.118-7.863-.206-4.138-3.751-7.329-7.863-7.118-89.019 4.429-172.782 41.606-235.857 104.682-2.478 2.478-2.91 6.34-1.041 9.304l103.447 164.045c1.426 2.262 3.861 3.501 6.351 3.501 1.367 0 2.751-.374 3.993-1.157 3.504-2.209 4.553-6.841 2.343-10.344l-18.069-28.653c25.764-5.909 45.079-29.05 45.079-56.535 0-30.569-23.772-55.673-53.799-57.839 94.008-62.317 215.692-65.989 312.972-11.036-11.167 10.812-17.592 25.692-17.592 41.6 0 15.246 5.87 29.646 16.528 40.548 7.685 7.861 17.247 13.258 27.688 15.795l-34.02 53.949c-10.184-17.542-29.134-28.898-50.174-28.898-31.986 0-58.008 26.022-58.008 58.008 0 30.424 23.547 55.435 53.372 57.807l-26.706 42.35c-2.21 3.504-1.161 8.135 2.343 10.344 1.242.784 2.626 1.157 3.993 1.157 2.49 0 4.925-1.239 6.351-3.501l183.594-291.141c1.87-2.965 1.438-6.827-1.039-9.304zm-380.502 80.159c0 22.232-17.042 40.639-38.745 42.792l-41.035-65.072c7.77-12.872 21.509-20.728 36.772-20.728 23.714 0 43.008 19.294 43.008 43.008zm271.581-27.274c0-13.159 5.942-25.363 16.078-33.497 16.445 10.476 32.083 22.708 46.644 36.707l-24.894 39.477c-21.204-2.583-37.828-20.923-37.828-42.687zm-54.978 182.411c-23.714 0-43.008-19.294-43.008-43.008s19.294-43.008 43.008-43.008c18.453 0 34.74 11.773 40.658 28.988l-35.78 56.74c-1.619.183-3.249.288-4.878.288z"/><path d="m136.469 258.765c-.386 2.379.396 4.8 2.1 6.504l28.571 28.571c1.44 1.44 3.359 2.197 5.306 2.197 1.138 0 2.286-.259 3.352-.792l28.572-14.286c2.156-1.078 3.663-3.127 4.049-5.507.386-2.379-.396-4.8-2.1-6.504l-28.572-28.571c-2.282-2.282-5.769-2.85-8.657-1.405l-28.571 14.286c-2.157 1.078-3.664 3.127-4.05 5.507zm34.493-3.959 17.391 17.391-14.429 7.215-17.391-17.391z"/><path d="m338.548 161.256c1.139 0 2.287-.259 3.352-.792l28.571-14.286c2.156-1.078 3.663-3.127 4.049-5.507.386-2.379-.396-4.8-2.1-6.504l-28.571-28.571c-2.281-2.282-5.769-2.849-8.657-1.405l-28.572 14.286c-2.156 1.078-3.663 3.127-4.049 5.507-.386 2.379.396 4.8 2.1 6.504l28.572 28.572c1.44 1.439 3.359 2.196 5.305 2.196zm-1.483-41.233 17.391 17.391-14.429 7.215-17.392-17.391z"/><path d="m301.434 223.801c1.41 1.956 3.674 3.115 6.084 3.115h40.406c3.228 0 6.094-2.066 7.115-5.128l10.102-30.305c.762-2.287.379-4.801-1.031-6.757s-3.674-3.115-6.085-3.115h-40.405c-3.228 0-6.094 2.066-7.115 5.128l-10.102 30.305c-.762 2.287-.379 4.802 1.031 6.757zm21.592-27.19h24.595l-5.102 15.305h-24.595z"/><ellipse cx="159.024" cy="127.491" rx="8.081" ry="8.081" transform="matrix(.988 -.152 .152 .988 -17.573 25.726)"/><circle cx="166.095" cy="195.172" r="8.081"/><ellipse cx="218.985" cy="312.711" rx="8.081" ry="8.081" transform="matrix(.647 -.763 .763 .647 -161.142 277.403)"/><ellipse cx="387.321" cy="217.395" rx="8.081" ry="8.081" transform="matrix(.977 -.215 .215 .977 -37.636 88.205)"/><ellipse cx="256" cy="263.863" rx="8.081" ry="8.081" transform="matrix(.424 -.906 .906 .424 -91.484 383.924)"/></g></g></svg>